<?xml version="1.0" encoding="iso-8859-1"?>
<!-- Generator: Adobe Illustrator 19.0.0, SVG Export Plug-In . SVG Version: 6.00 Build 0)  -->
<svg version="1.1" id="Capa_1" xmlns="http://www.w3.org/2000/svg" xmlns:xlink="http://www.w3.org/1999/xlink" x="0px" y="0px"
	 viewBox="0 0 512 512" style="enable-background:new 0 0 512 512;" xml:space="preserve">
<path style="fill:#91E0FF;" d="M467,512H45c-24.813,0-45-20.187-45-45V45C0,20.187,20.187,0,45,0h422c24.813,0,45,20.187,45,45v422
	C512,491.813,491.813,512,467,512z"/>
<path style="fill:#61CEF3;" d="M467,0H256v512h211c24.813,0,45-20.187,45-45V45C512,20.187,491.813,0,467,0z"/>
<g>
	<path style="fill:#FFFAFD;" d="M364.241,271H96.969c-8.284,0-15-6.716-15-15s6.716-15,15-15h267.272
		c19.734,0,35.79-16.055,35.79-35.79s-16.056-35.79-35.79-35.79h-13.558c-8.284,0-15-6.716-15-15s6.716-15,15-15h13.558
		c36.276,0,65.79,29.513,65.79,65.79S400.518,271,364.241,271z"/>
	<path style="fill:#FFFAFD;" d="M212.91,220.21H96.969c-8.284,0-15-6.716-15-15s6.716-15,15-15H212.91
		c19.735,0,35.791-16.055,35.791-35.79s-16.056-35.79-35.791-35.79h-13.558c-8.284,0-15-6.716-15-15s6.716-15,15-15h13.558
		c36.277,0,65.791,29.513,65.791,65.79S249.187,220.21,212.91,220.21z"/>
	<path style="fill:#FFFAFD;" d="M313.676,423.37h-13.558c-8.284,0-15-6.716-15-15s6.716-15,15-15h13.558
		c19.734,0,35.79-16.055,35.79-35.79s-16.056-35.79-35.79-35.79H180.334c-8.284,0-15-6.716-15-15s6.716-15,15-15h133.341
		c36.276,0,65.79,29.513,65.79,65.79S349.952,423.37,313.676,423.37z"/>
</g>
<g>
	<path style="fill:#FBF3F6;" d="M364.241,139.42h-13.558c-8.284,0-15,6.716-15,15s6.716,15,15,15h13.558
		c19.734,0,35.79,16.055,35.79,35.79S383.976,241,364.241,241H256v30h108.241c36.276,0,65.79-29.513,65.79-65.79
		S400.518,139.42,364.241,139.42z"/>
	<path style="fill:#FBF3F6;" d="M278.7,154.42c0-19.805-8.809-37.58-22.7-49.651v99.303C269.891,192,278.7,174.225,278.7,154.42z"/>
	<path style="fill:#FBF3F6;" d="M313.676,291.79H256v30h57.676c19.734,0,35.79,16.055,35.79,35.79s-16.056,35.79-35.79,35.79
		h-13.558c-8.284,0-15,6.716-15,15s6.716,15,15,15h13.558c36.276,0,65.79-29.513,65.79-65.79S349.952,291.79,313.676,291.79z"/>
</g>
<g>
</g>
<g>
</g>
<g>
</g>
<g>
</g>
<g>
</g>
<g>
</g>
<g>
</g>
<g>
</g>
<g>
</g>
<g>
</g>
<g>
</g>
<g>
</g>
<g>
</g>
<g>
</g>
<g>
</g>
</svg>
